<svg width="23" height="23" viewBox="0 0 23 23" fill="none" xmlns="http://www.w3.org/2000/svg">
<path d="M13.689 1.51924L13.6894 1.51952L20.3067 6.1493C20.3067 6.14933 20.3067 6.14936 20.3068 6.14939C20.8175 6.5069 21.3109 7.10143 21.6774 7.80342C22.0439 8.50545 22.25 9.25094 22.25 9.87748V17.6667C22.25 20.1821 20.2077 22.2244 17.6923 22.2244H5.3077C2.79445 22.2244 0.75 20.1727 0.75 17.6552V9.72813C0.75 9.14773 0.936226 8.4402 1.27026 7.76177C1.6041 7.08376 2.05362 6.49973 2.51772 6.13774L2.51788 6.13761L8.27157 1.6472C8.27189 1.64696 8.2722 1.64671 8.27252 1.64647C9.74751 0.504348 12.1549 0.444364 13.689 1.51924ZM11.5 19.9906C12.3852 19.9906 13.1116 19.2642 13.1116 18.379V14.9324C13.1116 14.0472 12.3852 13.3208 11.5 13.3208C10.6147 13.3208 9.88834 14.0472 9.88834 14.9324V18.379C9.88834 19.2642 10.6147 19.9906 11.5 19.9906Z" stroke="#848282" stroke-width="1.5"/>
</svg>
